<svg width="79" height="23" viewBox="0 0 79 23" fill="none" xmlns="http://www.w3.org/2000/svg">
<path d="M7.2892 22.0078C5.90612 22.0078 4.66321 21.6714 3.56049 20.9985C2.45776 20.3257 1.58867 19.4005 0.953203 18.223C0.317734 17.0455 0 15.7185 0 14.242C0 12.7468 0.336417 11.4198 1.00927 10.261C1.70081 9.08347 2.62598 8.1583 3.78478 7.48545C4.96227 6.79391 6.27992 6.44814 7.73776 6.44814C9.21429 6.44814 10.532 6.79391 11.6908 7.48545C12.8496 8.1583 13.7654 9.08347 14.4382 10.261C15.1298 11.4384 15.4755 12.7655 15.4755 14.242L14.4663 14.4663C14.4663 15.8867 14.1485 17.167 13.5131 18.3071C12.8963 19.4472 12.0459 20.3537 10.9618 21.0266C9.89649 21.6807 8.67228 22.0078 7.2892 22.0078ZM7.73776 19.6809C8.74704 19.6809 9.63483 19.4472 10.4011 18.98C11.1861 18.494 11.8029 17.8399 12.2515 17.0175C12.7187 16.1951 12.9524 15.27 12.9524 14.242C12.9524 13.1953 12.7187 12.2608 12.2515 11.4384C11.8029 10.6161 11.1861 9.97126 10.4011 9.504C9.63483 9.01806 8.74704 8.77508 7.73776 8.77508C6.76587 8.77508 5.87808 9.01806 5.0744 9.504C4.28941 9.97126 3.66328 10.6161 3.19603 11.4384C2.74746 12.2608 2.52318 13.1953 2.52318 14.242C2.52318 15.27 2.74746 16.1951 3.19603 17.0175C3.66328 17.8399 4.28941 18.494 5.0744 18.98C5.87808 19.4472 6.76587 19.6809 7.73776 19.6809ZM14.1579 21.9237C13.7841 21.9237 13.4663 21.8022 13.2047 21.5592C12.9617 21.2976 12.8402 20.9798 12.8402 20.606V16.1484L13.3729 13.429L15.4755 14.242V20.606C15.4755 20.9798 15.354 21.2976 15.1111 21.5592C14.8681 21.8022 14.5504 21.9237 14.1579 21.9237Z" fill="white"/>
<path d="M23.2632 21.8957C22.4596 21.8957 21.7493 21.6807 21.1326 21.2508C20.5158 20.8023 20.0298 20.2042 19.6747 19.4566C19.3383 18.6903 19.1701 17.8118 19.1701 16.8212V1.28963C19.1701 0.897133 19.2822 0.588743 19.5065 0.364461C19.7495 0.121487 20.0672 0 20.4597 0C20.8522 0 21.1606 0.121487 21.3849 0.364461C21.6278 0.588743 21.7493 0.897133 21.7493 1.28963V16.8212C21.7493 17.5502 21.8895 18.1483 22.1699 18.6155C22.4502 19.0828 22.8147 19.3164 23.2632 19.3164H23.9641C24.3192 19.3164 24.5996 19.4379 24.8052 19.6809C25.0108 19.9051 25.1136 20.2135 25.1136 20.606C25.1136 20.9985 24.9547 21.3163 24.637 21.5592C24.3192 21.7835 23.9174 21.8957 23.4315 21.8957H23.2632Z" fill="white"/>
<path d="M29.6257 21.8957C29.2332 21.8957 28.9155 21.7742 28.6725 21.5312C28.4296 21.2882 28.3081 20.9705 28.3081 20.578V7.87795C28.3081 7.48545 28.4296 7.16772 28.6725 6.92474C28.9155 6.68177 29.2332 6.56028 29.6257 6.56028C30.0182 6.56028 30.336 6.68177 30.579 6.92474C30.8219 7.16772 30.9434 7.48545 30.9434 7.87795V20.578C30.9434 20.9705 30.8219 21.2882 30.579 21.5312C30.336 21.7742 30.0182 21.8957 29.6257 21.8957ZM29.6257 3.92496C29.1585 3.92496 28.7473 3.75674 28.3922 3.42032C28.0558 3.0652 27.8875 2.65402 27.8875 2.18676C27.8875 1.68212 28.0558 1.27094 28.3922 0.953203C28.7473 0.616778 29.1585 0.448566 29.6257 0.448566C30.093 0.448566 30.4948 0.616778 30.8313 0.953203C31.1864 1.27094 31.3639 1.68212 31.3639 2.18676C31.3639 2.65402 31.1957 3.0652 30.8593 3.42032C30.5229 3.75674 30.1117 3.92496 29.6257 3.92496Z" fill="white"/>
<path d="M41.5366 21.8676C40.9946 21.8676 40.5834 21.5873 40.3031 21.0266L34.2474 8.27044C34.1166 7.9714 34.1072 7.6817 34.2194 7.40135C34.3315 7.1023 34.5558 6.87802 34.8922 6.7285C35.1913 6.57898 35.4903 6.56028 35.7894 6.67243C36.0884 6.76588 36.3127 6.96213 36.4622 7.26117L42.1534 19.5407H40.8638L46.4989 7.26117C46.6484 6.96213 46.882 6.76588 47.1998 6.67243C47.5175 6.56028 47.8446 6.57898 48.181 6.7285C48.4801 6.85933 48.6857 7.07427 48.7978 7.37331C48.9099 7.67236 48.8912 7.96205 48.7417 8.24241L42.7422 21.0266C42.4805 21.5873 42.0786 21.8676 41.5366 21.8676Z" fill="white"/>
<path d="M58.3095 22.0078C56.7769 22.0078 55.4125 21.6807 54.2163 21.0266C53.0201 20.3537 52.0856 19.4379 51.4127 18.2791C50.7399 17.1016 50.4035 15.7559 50.4035 14.242C50.4035 12.7094 50.7212 11.3637 51.3567 10.2049C51.9922 9.0274 52.8706 8.11158 53.992 7.45742C55.1321 6.78457 56.4311 6.44814 57.8889 6.44814C59.3281 6.44814 60.571 6.77522 61.6176 7.42938C62.683 8.06485 63.496 8.95264 64.0567 10.0927C64.6174 11.2142 64.8978 12.5131 64.8978 13.9897C64.8978 14.3261 64.7856 14.6064 64.5614 14.8307C64.3371 15.0363 64.0474 15.1391 63.6923 15.1391H52.1977V13.0365H63.7203L62.5428 13.8495C62.5428 12.8589 62.3559 11.9805 61.9821 11.2142C61.6083 10.4292 61.0756 9.81239 60.3841 9.36383C59.6925 8.91526 58.8608 8.69098 57.8889 8.69098C56.8236 8.69098 55.8984 8.93395 55.1134 9.4199C54.3471 9.88715 53.7584 10.5413 53.3472 11.3824C52.9547 12.2234 52.7585 13.1766 52.7585 14.242C52.7585 15.3073 52.9921 16.2605 53.4593 17.1016C53.9453 17.924 54.5994 18.5781 55.4218 19.0641C56.2629 19.5313 57.2254 19.765 58.3095 19.765C58.9262 19.765 59.543 19.6528 60.1598 19.4285C60.7953 19.2043 61.3092 18.9426 61.7017 18.6435C61.9634 18.4566 62.2438 18.3632 62.5428 18.3632C62.8419 18.3445 63.1035 18.4286 63.3278 18.6155C63.6268 18.8772 63.7857 19.1669 63.8044 19.4846C63.8231 19.7837 63.6829 20.0453 63.3839 20.2696C62.7671 20.7742 61.9821 21.1948 61.0289 21.5312C60.0757 21.8489 59.1692 22.0078 58.3095 22.0078Z" fill="white"/>
<path d="M69.7518 12.3636C69.7705 11.2235 70.0509 10.2049 70.5929 9.30775C71.1536 8.41062 71.8919 7.70039 72.8077 7.17706C73.7422 6.65374 74.7608 6.39207 75.8636 6.39207C76.8915 6.39207 77.6672 6.56028 78.1905 6.89671C78.7138 7.21444 78.9194 7.61629 78.8073 8.10223C78.7325 8.3639 78.611 8.56014 78.4428 8.69098C78.2933 8.82181 78.1064 8.89657 77.8821 8.91526C77.6578 8.93395 77.4149 8.91526 77.1532 8.85919C75.9944 8.67229 74.9571 8.70032 74.0413 8.94329C73.1441 9.18627 72.4339 9.59745 71.9106 10.1769C71.3872 10.7563 71.1256 11.4852 71.1256 12.3636H69.7518ZM69.836 21.8957C69.4248 21.8957 69.107 21.7929 68.8828 21.5873C68.6585 21.363 68.5463 21.0359 68.5463 20.606V7.84991C68.5463 7.43873 68.6585 7.12099 68.8828 6.89671C69.107 6.67243 69.4248 6.56028 69.836 6.56028C70.2658 6.56028 70.5836 6.67243 70.7892 6.89671C71.0134 7.1023 71.1256 7.42004 71.1256 7.84991V20.606C71.1256 21.0172 71.0134 21.3349 70.7892 21.5592C70.5836 21.7835 70.2658 21.8957 69.836 21.8957Z" fill="white"/>
</svg>
